<svg xmlns="http://www.w3.org/2000/svg" width="254.35" height="30.004" viewBox="0 0 254.35 30.004">
  <g id="Group_3829" data-name="Group 3829" transform="translate(-500.892 -413.335)">
    <g id="Group_3823" data-name="Group 3823" transform="translate(500.892 413.335)">
      <g id="Group_3822" data-name="Group 3822">
        <path id="Path_551" data-name="Path 551" d="M529.891,422.831a15.041,15.041,0,0,1-18.79,19.733,15.047,15.047,0,0,1-2.361-27.46,15.054,15.054,0,0,1,21.151,7.727Z" transform="translate(-500.892 -413.335)" fill="#fff"/>
        <g id="Group_3821" data-name="Group 3821" transform="translate(1.668 6.671)">
          <path id="Path_552" data-name="Path 552" d="M528.2,427.85h.478c-.091-.307-.537-.185-.717-.461a.851.851,0,0,1,.6.124v-.03c-.089-.062-.3-.062-.239-.246a14.576,14.576,0,0,1-3.755-2.067c-.954-.552-1.462-1.871-2.536-2.238a6.249,6.249,0,0,1-.387-.767l-.119.061a4.706,4.706,0,0,1-.387-.8.81.81,0,0,0-.656-.275c-.328.185-.833-.122-1.043.062l.178.092c-.059.092-.118.183-.268.153a10.112,10.112,0,0,1-1.728-1.871c.268-.767-.717-.95-1.074-1.5-.508-.4-1.164,0-1.671.153a14.426,14.426,0,0,0-2.593-.49c-.358.092-.567.49-.746.736-.537.767-.776,1.718-1.4,2.483-.178.339-.626.184-.864.431a2.761,2.761,0,0,0-1.462.46c-.029.06-.059.153-.148.122a5.039,5.039,0,0,1-.476.706c-.449.612-1.282.8-1.91,1.164a8.565,8.565,0,0,0-2.176,1.6l.03.03c-.328.49-.8.767-1.133,1.226.328-.091.269-.492.655-.429.089.246-.209.339-.239.491.121-.062.269-.153.389-.122a.915.915,0,0,1-.358.4c.15-.061.119.092.178.124.15.03.389-.246.6-.124a6.81,6.81,0,0,1-.507.491v.03c.12,0,.209,0,.268-.092.209-.03.387-.337.567-.367l-.328.46.358-.277c.089.124-.21.216-.061.339.268-.122.328-.4.567-.522-.03.245-.3.429-.417.644.118-.122.478-.215.417-.461a4.161,4.161,0,0,0,.715-.735c.656-.736,1.133-1.5,2.117-1.718.029.032-.06.062,0,.032.537-.461,1.372-.461,1.88-1.013.088-.122.237-.367.446-.307v-.06a.247.247,0,0,1,.3-.185l.03.122c.417-.49,1.133-.307,1.461-.767v.062a2.421,2.421,0,0,0,1.074-.981,2.873,2.873,0,0,1,.537-.768,2.9,2.9,0,0,1,.476-.765,2.174,2.174,0,0,1,.894.03c.358.49.984.213,1.521.245.03.277.3,0,.328.277.446.213.6.889.983,1.257a1.225,1.225,0,0,0-.6.736c-.387.06-.029.491-.417.52a.3.3,0,0,1,.476,0l-.088.094a14.912,14.912,0,0,0-1.343.8l.061.062c-.12.092-.239.245-.328.307h.089c.009,0,.006.012.014.017-.048.027-.091.059-.068.127h.089a.112.112,0,0,1,.026-.027v0c.15,0,.3-.215.417-.091.03.03-.029.06-.029.091.148-.215.328.032.417.032-.209.185-.478.4-.715.582h.237c-.089.277-.416.185-.566.43.178,0,.059.215,0,.245.12-.03.238-.183.387-.092-.089.215-.357.247-.387.491.207-.124.328-.491.6-.369.03.092-.178.124-.089.277.12-.032.209-.185.357-.122a.092.092,0,0,1,.091.122c.12-.153.357,0,.478-.122.416-.582,1.222-.491,1.818-.767l-.03-.153c.091-.369.626-.277.924-.4.091-.369.567-.092.717-.429.178-.153.328.06.505.06.24-.121.569-.092.776-.213.567-.124,1.043.582,1.372.919a8.433,8.433,0,0,0,2.773,2.055c-.507-.369-1.042-.614-1.552-1.012.032-.092.121-.062.18-.062.448.337.894.582,1.343.889a11.8,11.8,0,0,0,3.07,1.607l-.15-.122c.03-.032-.029-.092.03-.122l.21.122c.029-.122.179-.122.268-.154-.15-.275-.537-.367-.8-.522a11.176,11.176,0,0,1-2.415-1.393l.029-.029a19.215,19.215,0,0,0,2.743,1.361c.148.307.389.122.626.215C528.321,427.942,528.2,427.942,528.2,427.85Z" transform="translate(-501.995 -417.747)" fill="#00928a"/>
          <path id="Path_553" data-name="Path 553" d="M511.2,421.643l-.15-.064c.089.251-.212.188-.3.283l-.03-.1-.24.189c-.03.25-.392.094-.422.343.21,0,.392-.281.662-.249C510.752,421.862,511.054,421.766,511.2,421.643Z" transform="translate(-497.865 -415.784)" fill="#00928a"/>
          <path id="Path_554" data-name="Path 554" d="M510.29,421.745c-.15.094-.271.094-.331.251A.466.466,0,0,0,510.29,421.745Z" transform="translate(-497.916 -415.699)" fill="#00928a"/>
        </g>
      </g>
    </g>
    <g id="Group_3825" data-name="Group 3825" transform="translate(657.178 427.646)">
      <g id="Group_3824" data-name="Group 3824">
        <path id="Path_555" data-name="Path 555" d="M604.242,422.908h7.546v1.718h-5.5v2.265H611.4v1.715h-5.119v2.763h5.692v1.716h-7.735Z" transform="translate(-604.242 -422.743)" fill="#fff"/>
        <path id="Path_556" data-name="Path 556" d="M615.922,429.646a2.08,2.08,0,0,0,2.217,1.943c1.435,0,2.008-.752,2.008-1.4,0-.856-.711-1.039-2.592-1.494-1.007-.256-3.253-.811-3.253-3.056,0-1.11.724-2.837,3.711-2.837,1.99,0,3.806.774,3.892,3.077l-2.058.088c-.089-.526-.239-1.483-1.861-1.483-.614,0-1.719.186-1.719,1.01,0,.656.637.941,2.271,1.326,1.55.369,3.653.866,3.653,3.369a2.991,2.991,0,0,1-1.663,2.672,5.854,5.854,0,0,1-2.4.454c-1.093,0-3.8-.1-4.193-3.484Z" transform="translate(-599.279 -422.799)" fill="#fff"/>
        <path id="Path_557" data-name="Path 557" d="M623.859,422.908v5.5a4.553,4.553,0,0,0,.259,2.19,1.926,1.926,0,0,0,1.8.892c1.958,0,1.958-1.237,1.958-2.971v-5.613h2.046v5.344c0,1.821-.068,2.828-.566,3.6a3.815,3.815,0,0,1-3.384,1.4c-4.166,0-4.166-2.569-4.166-4.916v-5.432Z" transform="translate(-595.244 -422.743)" fill="#fff"/>
        <path id="Path_558" data-name="Path 558" d="M629.95,422.908h1.987l4.14,6.8h.026v-6.8h1.907v10.177h-2.063l-4.066-6.64h-.029v6.64h-1.9Z" transform="translate(-591.074 -422.743)" fill="#fff"/>
        <path id="Path_559" data-name="Path 559" d="M613.124,429.221a1.311,1.311,0,1,0-1.311,1.316A1.312,1.312,0,0,0,613.124,429.221Z" transform="translate(-601.036 -420.183)" fill="#fff"/>
        <path id="Path_560" data-name="Path 560" d="M644.7,424.87a3.789,3.789,0,0,1,1.21.162.93.93,0,0,1,.552.957.985.985,0,0,1-.416.912,2.047,2.047,0,0,1-1.086.256h-2.486V424.87Zm.313,3.986a2.647,2.647,0,0,1,1.03.172,1.113,1.113,0,0,1,.658,1.105,1.3,1.3,0,0,1-.676,1.287,2.482,2.482,0,0,1-1.048.183h-2.5v-2.748Zm.368-5.751h-4.956v10.26h4.62a7.147,7.147,0,0,0,1.449-.138,2.833,2.833,0,0,0,1.884-1.322,3,3,0,0,0,.457-1.632,2.741,2.741,0,0,0-.395-1.5,2.245,2.245,0,0,0-1.17-.9,2.106,2.106,0,0,0,1.239-2.1,2.6,2.6,0,0,0-.472-1.567A3.14,3.14,0,0,0,645.38,423.1Z" transform="translate(-585.709 -422.642)" fill="#fff"/>
        <path id="Path_561" data-name="Path 561" d="M652.1,425.452l1.3,4.038h-2.628Zm-4.859,7.913h2.247l.7-2.111h3.776l.674,2.111h2.323l-3.622-10.26H650.9Z" transform="translate(-582.219 -422.642)" fill="#fff"/>
        <path id="Path_562" data-name="Path 562" d="M655.032,423.1h2.232l4.065,7.139V423.1h1.981v10.26h-2.126l-4.169-7.277v7.277h-1.983Z" transform="translate(-578.228 -422.642)" fill="#fff"/>
        <path id="Path_563" data-name="Path 563" d="M663.092,423.1h2.134v4.227l3.953-4.227h2.772l-4.2,4.231,4.411,6.029h-2.755l-3.159-4.472-1.024,1.04v3.431h-2.134Z" transform="translate(-574.099 -422.642)" fill="#fff"/>
      </g>
    </g>
    <path id="Path_564" data-name="Path 564" d="M557.769,432.276h4.314V419.72h3.1v16.722h-3.1v-1.132l-11.87-.031-.028,1.071H547v-16.78h3.185v12.7l4.372-.03V416.834h3.213Z" transform="translate(23.616 1.792)" fill="#fff"/>
    <g id="Group_3826" data-name="Group 3826" transform="translate(541.36 418.748)">
      <path id="Path_565" data-name="Path 565" d="M538.9,433.012v-5.54h6.6v-3.027l-6.6-.031v-4.368h7.077l0-3.131H528.633v3.131h6.995v4.368H529.08v3.058h6.548v5.54h-7.976v3.073h19.19v-3.073Z" transform="translate(-527.653 -416.915)" fill="#fff"/>
      <path id="Path_566" data-name="Path 566" d="M537.487,424.558a1.887,1.887,0,0,0-.892,3,1.9,1.9,0,0,0,3.3-.711,2.026,2.026,0,0,0-.234-1.521A1.91,1.91,0,0,0,537.487,424.558Z" transform="translate(-523.29 -413.043)" fill="#fff"/>
    </g>
    <g id="Group_3827" data-name="Group 3827" transform="translate(598.222 418.626)">
      <rect id="Rectangle_1240" data-name="Rectangle 1240" width="3.119" height="1.99" transform="translate(6.343 14.704) rotate(-77.703)" fill="#fff"/>
      <path id="Path_567" data-name="Path 567" d="M582.518,431.507c2.291-1.662,2.726-1.973,2.726-1.973s-1.784-1.822-1.842-1.845-1.559,1.015-2.185,1.443a9.135,9.135,0,0,1-.369-2.057h3.309v-9.953h-9.409v16c-.322.057-.628.115-.9.166l-.06-1.255-2.563.448V427.87h2.813v-2.5h-2.813V424.4h2.044v-1.223c.118.088.189.138.189.138l1.293-2.931a7.066,7.066,0,0,1-3.318-3.549h-2.643a8.181,8.181,0,0,1-3.533,4.119l1.293,2.932s.216-.189.547-.5V424.4h1.651v.972h-3.055v2.5h3.055v5.04l-3.121.546.067,2.76,7.879-1.5-.02,1.459,6.333-1.105-.132-2.516a9.538,9.538,0,0,0,4.016,3.685l1.341-2.634A12.877,12.877,0,0,1,582.518,431.507ZM568.589,421.9a12.007,12.007,0,0,0,1.517-1.928,9.365,9.365,0,0,0,1.641,1.928Zm8.917-2.046H581.4v1.317h-3.891Zm0,12.78v-5.56h.811a10.574,10.574,0,0,0,1.281,5.208C579.285,432.334,578.475,432.47,577.507,432.635Zm0-7.851v-1.32H581.4v1.32Z" transform="translate(-565.255 -416.834)" fill="#fff"/>
      <path id="Path_568" data-name="Path 568" d="M568.01,428.018l-.465-3.33-2.063.376.468,3.353Z" transform="translate(-565.138 -412.811)" fill="#fff"/>
    </g>
    <g id="Group_3828" data-name="Group 3828" transform="translate(626.551 418.434)">
      <rect id="Rectangle_1241" data-name="Rectangle 1241" width="10.949" height="2.93" transform="translate(7.853 0.295)" fill="#fff"/>
      <path id="Path_569" data-name="Path 569" d="M603.6,421.6H590.868l-2.146-1.527s-2.341,3.915-4.733,5.562l1.34,3.215s.622-.534,1.477-1.391v6.955h2.987v-10.44a15.731,15.731,0,0,0,1.03-1.632v2.152h6.806v6.584a.42.42,0,0,1-.42.42h-3.461l1.161,2.92h3.578a2.2,2.2,0,0,0,2.194-2.2v-7.729H603.6Z" transform="translate(-583.989 -414.986)" fill="#fff"/>
      <path id="Path_570" data-name="Path 570" d="M590.811,418.455c-.862-.564-1.694-1.186-2.527-1.748a18.431,18.431,0,0,1-4.2,3.982l1.4,2.885A22.868,22.868,0,0,0,590.811,418.455Z" transform="translate(-583.938 -416.707)" fill="#fff"/>
    </g>
  </g>
</svg>
