<?xml version="1.0" encoding="UTF-8"?>
<svg id="_圖層_1" xmlns="http://www.w3.org/2000/svg" xmlns:xlink="http://www.w3.org/1999/xlink" viewBox="0 0 2400 1364">
	<defs>
		<style>
			.cls-1{fill:#040914;}.cls-2{fill:url(#_未命名漸層_14);}.cls-3{fill:url(#_未命名漸層_14-2);}.cls-4{opacity:.83;}
		</style>
		<radialGradient id="_未命名漸層_14" cx="5" cy="5" fx="5" fy="5" r="5" gradientUnits="userSpaceOnUse">
			<stop offset="0" stop-color="#fff" />
			<stop offset=".44848" stop-color="#fff" />
			<stop offset="1" stop-color="#fff" stop-opacity="0" />
		</radialGradient>
		<symbol id="_新增符號" viewBox="0 0 10 10">
			<circle class="cls-2" cx="5" cy="5" r="5" />
		</symbol>
		<radialGradient id="_未命名漸層_14-2" cx="393.50302" cy="65.04191" fx="393.50302" fy="65.04191" r="1" xlink:href="#_未命名漸層_14" />
	</defs>
	<rect class="cls-1" width="2400" height="1364" />
	<circle class="cls-3" cx="393.50302" cy="65.04191" r="1" />
	<g>
		<use width="10" height="10" transform="translate(732.39273 797.84018) scale(.66125)" xlink:href="#_新增符號" opacity="1" />
		<use width="10" height="10" transform="translate(176.34846 124.63489) scale(.48722)" xlink:href="#_新增符號" opacity="0.4" />
		<use width="10" height="10" transform="translate(213.7456 146.00556) scale(.49787)" xlink:href="#_新增符號" opacity="0.4" />
		<use width="10" height="10" transform="translate(965.40957 240.25523) scale(.22554)" xlink:href="#_新增符號" opacity="0.4" />
		<use width="10" height="10" transform="translate(471.42211 745.7807) scale(.49187)" xlink:href="#_新增符號" opacity="1" />
		<use width="10" height="10" transform="translate(473.289 581.82237) scale(.54985)" xlink:href="#_新增符號" opacity="0.4" />
		<use width="10" height="10" transform="translate(222.72625 632.14591) scale(.54988)" xlink:href="#_新增符號" opacity="0.4" />
		<use width="10" height="10" transform="translate(693.48831 285.39852) scale(.32374)" xlink:href="#_新增符號" opacity="0.4" />
		<use width="10" height="10" transform="translate(368.88131 470.39467) scale(.69236)" xlink:href="#_新增符號" opacity="0.7" />
		<use width="10" height="10" transform="translate(514.55985 308.74097) scale(.47389)" xlink:href="#_新增符號" opacity="0.4" />
		<use width="10" height="10" transform="translate(222.69067 388.66106) scale(.71198)" xlink:href="#_新增符號" opacity="0.4" />
		<use width="10" height="10" transform="translate(244.08439 474.37798) scale(.69039)" xlink:href="#_新增符號" opacity="0.4" />
		<use width="10" height="10" transform="translate(72 544.56016) scale(.56529)" xlink:href="#_新增符號" opacity="0.4" />
		<use width="10" height="10" transform="translate(548.51426 1235.51039) scale(.34127)" xlink:href="#_新增符號" opacity="0.4" />
		<use width="10" height="10" transform="translate(1176.60733 1261.50244) scale(.28445)" xlink:href="#_新增符號" opacity="0.4" />
		<use width="10" height="10" transform="translate(764.6824 1257.61652) scale(.26342)" xlink:href="#_新增符號" opacity="0.4" />
		<use width="10" height="10" transform="translate(1139.51995 756.64359) scale(.53281)" xlink:href="#_新增符號" opacity="1" />
		<use width="10" height="10" transform="translate(110.1269 1043.5109) scale(.36816)" xlink:href="#_新增符號" opacity="0.4" />
		<use width="10" height="10" transform="translate(453.64431 835.59176) scale(.4987)" xlink:href="#_新增符號" opacity="0.4" />
		<use width="10" height="10" transform="translate(164.66357 1168.97289) scale(.29486)" xlink:href="#_新增符號" opacity="0.4" />
		<use width="10" height="10" transform="translate(1211.51726 972.99395) scale(.52983)" xlink:href="#_新增符號" opacity="0.4" />
		<use width="10" height="10" transform="translate(287.04255 1326.28363) scale(.23529)" xlink:href="#_新增符號" opacity="0.4" />
		<use width="10" height="10" transform="translate(970.54797 801.40823) scale(.63266)" xlink:href="#_新增符號" opacity="0.4" />
		<use width="10" height="10" transform="translate(392.52273 950.39927) scale(.41864)" xlink:href="#_新增符號" opacity="0.4" />
		<use width="10" height="10" transform="translate(1991.01512 1070.12811) scale(.44344)" xlink:href="#_新增符號" opacity="0.4" />
		<use width="10" height="10" transform="translate(2361.05288 1100.50311) scale(.50572)" xlink:href="#_新增符號" opacity="0.4" />
		<use width="10" height="10" transform="translate(2290.3369 1216.69888) scale(.41668)" xlink:href="#_新增符號" opacity="0.4" />
		<use width="10" height="10" transform="translate(2161.69435 1093.14893) scale(.38339)" xlink:href="#_新增符號" opacity="0.4" />
		<use width="10" height="10" transform="translate(1463.04161 1257.86878) scale(.73538)" xlink:href="#_新增符號" opacity="0.4" />
		<use width="10" height="10" transform="translate(2172.86524 854.68018) scale(.39041)" xlink:href="#_新增符號" opacity="0.4" />
		<use width="10" height="10" transform="translate(1051.0012 922.53536) scale(.59013)" xlink:href="#_新增符號" opacity="0.4" />
		<use width="10" height="10" transform="translate(1625.69189 781.31257) scale(.50069)" xlink:href="#_新增符號" opacity="0.4" />
		<use width="10" height="10" transform="translate(1210.66545 808.00696) scale(.47629)" xlink:href="#_新增符號" opacity="0.4" />
		<use width="10" height="10" transform="translate(1850.84665 390.30531) scale(.3636)" xlink:href="#_新增符號" opacity="0.4" />
		<use width="10" height="10" transform="translate(749.9657 624.57487) scale(.64378)" xlink:href="#_新增符號" opacity="0.4" />
		<use width="10" height="10" transform="translate(1677.69598 340.38007) scale(.45996)" xlink:href="#_新增符號" opacity="0.4" />
		<use width="10" height="10" transform="translate(1459.65939 384.17781) scale(.59236)" xlink:href="#_新增符號" opacity="0.4" />
		<use width="10" height="10" transform="translate(2000.5049 159.87024) scale(.29136)" xlink:href="#_新增符號" opacity="0.4" />
		<use width="10" height="10" transform="translate(1215.12318 253.07056) scale(.30581)" xlink:href="#_新增符號" opacity="0.4" />
		<use width="10" height="10" transform="translate(1276.67307 226.30638) scale(.31517)" xlink:href="#_新增符號" opacity="0.4" />
		<use width="10" height="10" transform="translate(394.26753 667.68191) scale(.48959)" xlink:href="#_新增符號" opacity="0.4" />
		<use width="10" height="10" transform="translate(1175.63849 492.84486) scale(.59791)" xlink:href="#_新增符號" opacity="0.4" />
		<use width="10" height="10" transform="translate(915.46879 608.67259) scale(.62616)" xlink:href="#_新增符號" opacity="0.7" />
		<use width="10" height="10" transform="translate(1360.54207 830.75074) scale(.47182)" xlink:href="#_新增符號" opacity="0.4" />
		<use width="10" height="10" transform="translate(532.15372 983.65725) scale(.56223)" xlink:href="#_新增符號" opacity="0.4" />
		<use width="10" height="10" transform="translate(1420.19035 1009.42669) scale(.58313)" xlink:href="#_新增符號" opacity="0.4" />
		<use width="10" height="10" transform="translate(956.39309 1016.17053) scale(.50736)" xlink:href="#_新增符號" opacity="0.4" />
		<use width="10" height="10" transform="translate(1626.71259 794.84351) scale(.49947)" xlink:href="#_新增符號" opacity="1" />
		<use width="10" height="10" transform="translate(1765.02748 703.30444) scale(.51463)" xlink:href="#_新增符號" opacity="0.4" />
		<use width="10" height="10" transform="translate(2373.24989 580.30793) scale(.38008)" xlink:href="#_新增符號" opacity="0.4" />
		<use width="10" height="10" transform="translate(1967.50166 662.44578) scale(.46143)" xlink:href="#_新增符號" opacity="0.4" />
		<use width="10" height="10" transform="translate(2195.94647 290.07867) scale(.30901)" xlink:href="#_新增符號" opacity="0.4" />
		<use width="10" height="10" transform="translate(1884.52371 391.39833) scale(.33762)" xlink:href="#_新增符號" opacity="0.4" />
		<use width="10" height="10" transform="translate(2229.76533 160.93224) scale(.37361)" xlink:href="#_新增符號" opacity="0.4" />
		<use width="10" height="10" transform="translate(2222.10044 170.26639) scale(.36017)" xlink:href="#_新增符號" opacity="0.4" />
		<use width="10" height="10" transform="translate(2263.82083 102) scale(.46204)" xlink:href="#_新增符號" opacity="0.4" />
		<use width="10" height="10" transform="translate(1699.39272 154.19412) scale(.38325)" xlink:href="#_新增符號" opacity="1" />
		<use width="10" height="10" transform="translate(1534.48521 132.85043) scale(.38513)" xlink:href="#_新增符號" opacity="0.4" />
		<use width="10" height="10" transform="translate(1108.9202 133.93632) scale(.24869)" xlink:href="#_新增符號" opacity="0.4" />
		<use width="10" height="10" transform="translate(1114.63026 119.60709) scale(.25212)" xlink:href="#_新增符號" opacity="0.4" />
		<use width="10" height="10" transform="translate(1332.48773 127.59005) scale(.32149)" xlink:href="#_新增符號" opacity="0.4" />
		<use width="10" height="10" transform="translate(2364.14259 256.80695) scale(.48212)" xlink:href="#_新增符號" opacity="0.4" />
		<use width="10" height="10" transform="translate(2244.19161 550.36412) scale(.31784)" xlink:href="#_新增符號" opacity="0.4" />
		<use width="10" height="10" transform="translate(2201.47074 392.01475) scale(.32367)" xlink:href="#_新增符號" opacity="0.4" />
		<use width="10" height="10" transform="translate(2046.56109 742.6655) scale(.43465)" xlink:href="#_新增符號" opacity="0.4" />
		<use width="10" height="10" transform="translate(1916.38861 1008.04957) scale(.5429)" xlink:href="#_新增符號" opacity="0.4" />
		<use width="10" height="10" transform="translate(1362.38824 1128.88645) scale(.60838)" xlink:href="#_新增符號" opacity="0.4" />
		<use width="10" height="10" transform="translate(1512.77805 1194.45633) scale(.76424)" xlink:href="#_新增符號" opacity="0.4" />
		<use width="10" height="10" transform="translate(2091.56667 1353.8458) scale(.18218)" xlink:href="#_新增符號" opacity="1" />
		<use width="10" height="10" transform="translate(1816.70846 1302.35342) scale(.31607)" xlink:href="#_新增符號" opacity="0.4" />
		<use width="10" height="10" transform="translate(1765.62085 1269.89287) scale(.394)" xlink:href="#_新增符號" opacity="0.4" />
		<use width="10" height="10" transform="translate(1698.13586 1136.4532) scale(.60191)" xlink:href="#_新增符號" opacity="0.4" />
		<use width="10" height="10" transform="translate(1654.59418 1061.10907) scale(.62079)" xlink:href="#_新增符號" opacity="0.4" />
		<use width="10" height="10" transform="translate(2006.67234 1025.39711) scale(.48287)" xlink:href="#_新增符號" opacity="0.4" />
		<use width="10" height="10" transform="translate(2004.89482 1065.0237) scale(.45122)" xlink:href="#_新增符號" opacity="0.4" />
		<use width="10" height="10" transform="translate(775.96951 463.6898) scale(.43734)" xlink:href="#_新增符號" opacity="0.4" />
		<use width="10" height="10" transform="translate(691.42796 535.84405) scale(.52936)" xlink:href="#_新增符號" opacity="0.4" />
		<use width="10" height="10" transform="translate(1299.7998 651.90444) scale(.58146)" xlink:href="#_新增符號" opacity="0.4" />
		<use width="10" height="10" transform="translate(1608.17767 558.31428) scale(.63391)" xlink:href="#_新增符號" opacity="0.4" />
		<use width="10" height="10" transform="translate(1163.28775 508.70065) scale(.60539)" xlink:href="#_新增符號" opacity="0.4" />
		<use width="10" height="10" transform="translate(1083.28748 608.85066) scale(.70131)" xlink:href="#_新增符號" opacity="0.4" />
		<use width="10" height="10" transform="translate(1723.27641 425.86828) scale(.49416)" xlink:href="#_新增符號" opacity="0.4" />
		<use width="10" height="10" transform="translate(1029.49884 341.7865) scale(.33054)" xlink:href="#_新增符號" opacity="0.4" />
		<use width="10" height="10" transform="translate(975.92873 360.51701) scale(.32181)" xlink:href="#_新增符號" opacity="0.4" />
		<use width="10" height="10" transform="translate(1008.1719 312.31706) scale(.28869)" xlink:href="#_新增符號" opacity="0.4" />
		<use width="10" height="10" transform="translate(903.96902 397.53177) scale(.36495)" xlink:href="#_新增符號" opacity="0.7" />
		<use width="10" height="10" transform="translate(1600.46108 390.76714) scale(.59822)" xlink:href="#_新增符號" opacity="0.4" />
		<use width="10" height="10" transform="translate(758.17166 214.00054) scale(.28199)" xlink:href="#_新增符號" opacity="0.4" />
		<use width="10" height="10" transform="translate(624.90729 152.34599) scale(.34776)" xlink:href="#_新增符號" opacity="0.4" />
		<use width="10" height="10" transform="translate(472.3123 119.38543) scale(.43237)" xlink:href="#_新增符號" opacity="0.4" />
		<use width="10" height="10" transform="translate(827.22692 109.83696) scale(.28994)" xlink:href="#_新增符號" opacity="0.4" />
		<use width="10" height="10" transform="translate(872.89654 115.27074) scale(.27487)" xlink:href="#_新增符號" opacity="0.4" />
		<use width="10" height="10" transform="translate(483.69335 136.47912) scale(.43154)" xlink:href="#_新增符號" opacity="0.4" />
		<use width="10" height="10" transform="translate(1378.37861 194.78765) scale(.35009)" xlink:href="#_新增符號" opacity="0.4" />
		<use width="10" height="10" transform="translate(1459.57527 386.20571) scale(.59483)" xlink:href="#_新增符號" opacity="0.4" />
		<use width="10" height="10" transform="translate(1253.70464 686.81841) scale(.54695)" xlink:href="#_新增符號" opacity="0.4" />
		<use width="10" height="10" transform="translate(1991.88553 769.25037) scale(.48313)" xlink:href="#_新增符號" opacity="0.4" />
		<use width="10" height="10" transform="translate(2023.87277 849.12803) scale(.47672)" xlink:href="#_新增符號" opacity="0.4" />
		<use width="10" height="10" transform="translate(1155.97821 984.83269) scale(.51553)" xlink:href="#_新增符號" opacity="0.4" />
		<use width="10" height="10" transform="translate(1193.51826 1035.67914) scale(.48821)" xlink:href="#_新增符號" opacity="0.4" />
		<use width="10" height="10" transform="translate(947.38469 1201.74578) scale(.24356)" xlink:href="#_新增符號" opacity="0.4" />
		<use width="10" height="10" transform="translate(941.96271 1207.20515) scale(.23917)" xlink:href="#_新增符號" opacity="0.4" />
		<use width="10" height="10" transform="translate(838.20006 1228.32938) scale(.25325)" xlink:href="#_新增符號" opacity="0.4" />
		<use width="10" height="10" transform="translate(789.7768 1166.59394) scale(.35658)" xlink:href="#_新增符號" opacity="0.4" />
		<use width="10" height="10" transform="translate(607.96826 911.92697) scale(.61787)" xlink:href="#_新增符號" opacity="0.4" />
		<use width="10" height="10" transform="translate(587.28336 997.7326) scale(.60482)" xlink:href="#_新增符號" opacity="1" />
		<use width="10" height="10" transform="translate(944.49343 1172.31533) scale(.27529)" xlink:href="#_新增符號" opacity="0.4" />
		<use width="10" height="10" transform="translate(536.91188 1150.42474) scale(.38385)" xlink:href="#_新增符號" opacity="0.4" />
		<use width="10" height="10" transform="translate(231.82637 1267.48537) scale(.24373)" xlink:href="#_新增符號" opacity="0.4" />
		<use width="10" height="10" transform="translate(184.99202 1221.75018) scale(.27371)" xlink:href="#_新增符號" opacity="0.4" />
		<use width="10" height="10" transform="translate(729.17101 1305.52554) scale(.24519)" xlink:href="#_新增符號" opacity="0.4" />
		<use width="10" height="10" transform="translate(947.55655 1255.27096) scale(.20021)" xlink:href="#_新增符號" opacity="0.4" />
		<use width="10" height="10" transform="translate(835.88354 1289.88161) scale(.18842)" xlink:href="#_新增符號" opacity="0.4" />
		<use width="10" height="10" transform="translate(1313.40413 1288.69018) scale(.46091)" xlink:href="#_新增符號" opacity="0.4" />
		<use width="10" height="10" transform="translate(2019.28084 1121.6421) scale(.364)" xlink:href="#_新增符號" opacity="0.4" />
		<use width="10" height="10" transform="translate(2062.18941 1001.53895) scale(.45188)" xlink:href="#_新增符號" opacity="0.4" />
		<use width="10" height="10" transform="translate(2183.1276 770.95042) scale(.3564)" xlink:href="#_新增符號" opacity="0.4" />
		<use width="10" height="10" transform="translate(2211.45671 833.77952) scale(.3604)" xlink:href="#_新增符號" opacity="0.4" />
		<use width="10" height="10" transform="translate(2272.6383 974.80823) scale(.41003)" xlink:href="#_新增符號" opacity="0.4" />
		<use width="10" height="10" transform="translate(2316.73192 411.14076) scale(.40443)" xlink:href="#_新增符號" opacity="0.4" />
		<use width="10" height="10" transform="translate(1934.4852 381.55973) scale(.2957)" xlink:href="#_新增符號" opacity="0.4" />
		<use width="10" height="10" transform="translate(1910.44376 354.79206) scale(.29598)" xlink:href="#_新增符號" opacity="0.4" />
		<use width="10" height="10" transform="translate(1437.78219 611.49898) scale(.66543)" xlink:href="#_新增符號" opacity="0.4" />
		<use width="10" height="10" transform="translate(1497.09913 790.62842) scale(.48799)" xlink:href="#_新增符號" opacity="0.4" />
		<use width="10" height="10" transform="translate(1504.81003 928.74005) scale(.53562)" xlink:href="#_新增符號" opacity="0.4" />
		<use width="10" height="10" transform="translate(1563.0952 1002.97777) scale(.60361)" xlink:href="#_新增符號" opacity="0.4" />
		<use width="10" height="10" transform="translate(1555.02559 997.59649) scale(.60124)" xlink:href="#_新增符號" opacity="0.4" />
		<use width="10" height="10" transform="translate(1539.04469 989.61727) scale(.5991)" xlink:href="#_新增符號" opacity="0.4" />
		<use width="10" height="10" transform="translate(1712.3986 918.2159) scale(.51377)" xlink:href="#_新增符號" opacity="0.4" />
		<use width="10" height="10" transform="translate(1741.76545 904.96619) scale(.4977)" xlink:href="#_新增符號" opacity="0.4" />
		<use width="10" height="10" transform="translate(1810.80822 886.21697) scale(.51754)" xlink:href="#_新增符號" opacity="0.4" />
		<use width="10" height="10" transform="translate(1858.53394 872.71494) scale(.55179)" xlink:href="#_新增符號" opacity="0.4" />
		<use width="10" height="10" transform="translate(1853.07435 963.15877) scale(.56845)" xlink:href="#_新增符號" opacity="0.4" />
		<use width="10" height="10" transform="translate(1810.72804 1088.53219) scale(.5271)" xlink:href="#_新增符號" opacity="0.4" />
		<use width="10" height="10" transform="translate(1821.85276 1142.30754) scale(.436)" xlink:href="#_新增符號" opacity="0.4" />
		<use width="10" height="10" transform="translate(1955.81265 1217.92886) scale(.25633)" xlink:href="#_新增符號" opacity="0.4" />
		<use width="10" height="10" transform="translate(2078.33174 1249.8306) scale(.23547)" xlink:href="#_新增符號" opacity="0.4" />
		<use width="10" height="10" transform="translate(2105.19119 1271.35383) scale(.22809)" xlink:href="#_新增符號" opacity="0.4" />
		<use width="10" height="10" transform="translate(2129.5965 1282.12925) scale(.23332)" xlink:href="#_新增符號" opacity="0.4" />
		<use width="10" height="10" transform="translate(1994.97579 551.43582) scale(.39834)" xlink:href="#_新增符號" opacity="0.4" />
		<use width="10" height="10" transform="translate(1827.05429 543.07854) scale(.47619)" xlink:href="#_新增符號" opacity="0.4" />
		<use width="10" height="10" transform="translate(1696.20336 579.82328) scale(.58498)" xlink:href="#_新增符號" opacity="0.4" />
		<use width="10" height="10" transform="translate(1656.23162 595.77028) scale(.5952)" xlink:href="#_新增符號" opacity="0.4" />
		<use width="10" height="10" transform="translate(1307.55933 462.64061) scale(.65712)" xlink:href="#_新增符號" opacity="0.4" />
		<use width="10" height="10" transform="translate(1289.72871 364.8294) scale(.49796)" xlink:href="#_新增符號" opacity="0.4" />
		<use width="10" height="10" transform="translate(1252.7891 309.27795) scale(.3824)" xlink:href="#_新增符號" opacity="0.7" />
		<use width="10" height="10" transform="translate(208.79506 735.7453) scale(.46502)" xlink:href="#_新增符號" opacity="0.4" />
		<use width="10" height="10" transform="translate(198.83956 916.04462) scale(.41471)" xlink:href="#_新增符號" opacity="0.4" />
		<use width="10" height="10" transform="translate(327.30701 1184.94111) scale(.30605)" xlink:href="#_新增符號" opacity="0.4" />
		<use width="10" height="10" transform="translate(380.46496 1259.98219) scale(.28496)" xlink:href="#_新增符號" opacity="0.4" />
		<use width="10" height="10" transform="translate(436.3742 1313.19518) scale(.28148)" xlink:href="#_新增符號" opacity="0.4" />
		<use width="10" height="10" transform="translate(436.39799 1326.61826) scale(.27717)" xlink:href="#_新增符號" opacity="0.4" />
		<use width="10" height="10" transform="translate(417.33464 1153.19215) scale(.35583)" xlink:href="#_新增符號" opacity="0.4" />
		<use width="10" height="10" transform="translate(341.50625 252.7696) scale(.54475)" xlink:href="#_新增符號" opacity="0.4" />
		<use width="10" height="10" transform="translate(384.34549 252.89613) scale(.52355)" xlink:href="#_新增符號" opacity="0.4" />
		<use width="10" height="10" transform="translate(480.45257 253.17327) scale(.47645)" xlink:href="#_新增符號" opacity="0.4" />
		<use width="10" height="10" transform="translate(423.83713 361.71777) scale(.61349)" xlink:href="#_新增符號" opacity="0.4" />
		<use width="10" height="10" transform="translate(506.44964 497.50218) scale(.5909)" xlink:href="#_新增符號" opacity="0.4" />
		<use width="10" height="10" transform="translate(616.30829 663.68243) scale(.57085)" xlink:href="#_新增符號" opacity="0.4" />
		<use width="10" height="10" transform="translate(637.18085 632.68605) scale(.5922)" xlink:href="#_新增符號" opacity="0.4" />
		<use width="10" height="10" transform="translate(728.31938 405.38237) scale(.38848)" xlink:href="#_新增符號" opacity="0.4" />
		<use width="10" height="10" transform="translate(720.51625 352.31308) scale(.35407)" xlink:href="#_新增符號" opacity="0.4" />
		<use width="10" height="10" transform="translate(816.61036 302.00501) scale(.28277)" xlink:href="#_新增符號" opacity="1" />
		<use width="10" height="10" transform="translate(856.68723 302.05122) scale(.26596)" xlink:href="#_新增符號" opacity="0.4" />
		<use width="10" height="10" transform="translate(793.82222 593.28952) scale(.59611)" xlink:href="#_新增符號" opacity="0.4" />
		<use width="10" height="10" transform="translate(767.02013 874.85848) scale(.68003)" xlink:href="#_新增符號" opacity="0.4" />
		<use width="10" height="10" transform="translate(833.28861 932.83368) scale(.63524)" xlink:href="#_新增符號" opacity="0.4" />
		<use width="10" height="10" transform="translate(847.12496 1006.61924) scale(.5643)" xlink:href="#_新增符號" opacity="0.4" />
		<use width="10" height="10" transform="translate(773.27703 1094.17712) scale(.46288)" xlink:href="#_新增符號" opacity="0.4" />
		<use width="10" height="10" transform="translate(757.36095 1115.57181) scale(.44815)" xlink:href="#_新增符號" opacity="0.4" />
		<use width="10" height="10" transform="translate(1830.50782 184.09664) scale(.35282)" xlink:href="#_新增符號" opacity="0.4" />
		<use width="10" height="10" transform="translate(2108.0528 387.11305) scale(.28033)" xlink:href="#_新增符號" opacity="0.4" />
		<use width="10" height="10" transform="translate(2107.24888 498.51492) scale(.31635)" xlink:href="#_新增符號" opacity="0.4" />
		<use width="10" height="10" transform="translate(2156.22377 579.92128) scale(.32233)" xlink:href="#_新增符號" opacity="0.4" />
		<use width="10" height="10" transform="translate(2213.40944 614.15851) scale(.32286)" xlink:href="#_新增符號" opacity="0.4" />
		<use width="10" height="10" transform="translate(2387.29464 720.35279) scale(.2947)" xlink:href="#_新增符號" opacity="0.4" />
		<use width="10" height="10" transform="translate(2385.23307 855.50565) scale(.29702)" xlink:href="#_新增符號" opacity="0.4" />
	</g>
	<g>
		<use width="10" height="10" transform="translate(1310.75059 672.18548) rotate(-180) scale(.16376)" xlink:href="#_新增符號" opacity="0.4" />
		<use width="10" height="10" transform="translate(2290.85274 1234.10271) rotate(-180) scale(.27193)" xlink:href="#_新增符號" opacity="0.4" />
		<use width="10" height="10" transform="translate(2242.12131 1217.71262) rotate(-180) scale(.24288)" xlink:href="#_新增符號" opacity="0.4" />
		<use width="10" height="10" transform="translate(990.65178 1126.86203) rotate(-180) scale(.16587)" xlink:href="#_新增符號" opacity="0.4" />
		<use width="10" height="10" transform="translate(1946.07819 927.84551) rotate(-180) scale(.1535)" xlink:href="#_新增符號" opacity="0.4" />
		<use width="10" height="10" transform="translate(1474.37241 812.93219) rotate(-180) scale(.14681)" xlink:href="#_新增符號" opacity="0.4" />
		<use width="10" height="10" transform="translate(2195.85545 740.55458) rotate(-180) scale(.20604)" xlink:href="#_新增符號" opacity="0.4" />
		<use width="10" height="10" transform="translate(1150.33603 937.72771) rotate(-180) scale(.16534)" xlink:href="#_新增符號" opacity="0.4" />
		<use width="10" height="10" transform="translate(1818.38738 1039.39267) rotate(-180) scale(.15063)" xlink:href="#_新增符號" opacity="0.4" />
		<use width="10" height="10" transform="translate(1421.72827 879.69467) rotate(-180) scale(.13652)" xlink:href="#_新增符號" opacity="0.4" />
		<use width="10" height="10" transform="translate(2156.48829 1024.64244) rotate(-180) scale(.18597)" xlink:href="#_新增符號" opacity="1" />
		<use width="10" height="10" transform="translate(2107.59673 985.45226) rotate(-180) scale(.183)" xlink:href="#_新增符號" opacity="0.4" />
		<use width="10" height="10" transform="translate(2361.23326 715.43072) rotate(-180) scale(.23743)" xlink:href="#_新增符號" opacity="0.4" />
		<use width="10" height="10" transform="translate(2007.13317 96.70427) rotate(-180) scale(.12161)" xlink:href="#_新增符號" opacity="0.4" />
		<use width="10" height="10" transform="translate(1574.93342 142.62199) rotate(-180) scale(.17707)" xlink:href="#_新增符號" opacity="0.4" />
		<use width="10" height="10" transform="translate(1822.54039 98.89392) rotate(-180) scale(.12941)" xlink:href="#_新增符號" opacity="0.4" />
		<use width="10" height="10" transform="translate(1463.34711 615.91834) rotate(-180) scale(.13903)" xlink:href="#_新增符號" opacity="0.4" />
		<use width="10" height="10" transform="translate(2373.02812 247.47433) rotate(-180) scale(.20389)" xlink:href="#_新增符號" opacity="0.4" />
		<use width="10" height="10" transform="translate(2121.89174 628.86118) rotate(-180) scale(.14873)" xlink:href="#_新增符號" opacity="0.4" />
		<use width="10" height="10" transform="translate(2309.88912 142.72207) rotate(-180) scale(.15008)" xlink:href="#_新增符號" opacity="0.4" />
		<use width="10" height="10" transform="translate(1895.87375 672.70406) rotate(-180) scale(.22128)" xlink:href="#_新增符號" opacity="0.4" />
		<use width="10" height="10" transform="translate(2165.10578 7.43186) rotate(-180) scale(.1235)" xlink:href="#_新增符號" opacity="0.4" />
		<use width="10" height="10" transform="translate(1337.67487 627.3066) rotate(-180) scale(.13961)" xlink:href="#_新增符號" opacity="0.4" />
		<use width="10" height="10" transform="translate(2195.83989 304.77072) rotate(-180) scale(.12211)" xlink:href="#_新增符號" opacity="0.4" />
		<use width="10" height="10" transform="translate(1135.83544 228.80015) rotate(-180) scale(.20036)" xlink:href="#_新增符號" opacity="0.4" />
		<use width="10" height="10" transform="translate(148.663 228.70981) rotate(-180) scale(.30408)" xlink:href="#_新增符號" opacity="0.4" />
		<use width="10" height="10" transform="translate(207.88903 132.00248) rotate(-180) scale(.25224)" xlink:href="#_新增符號" opacity="0.4" />
		<use width="10" height="10" transform="translate(564.2362 143.80967) rotate(-180) scale(.2358)" xlink:href="#_新增符號" opacity="0.7" />
		<use width="10" height="10" transform="translate(1375.62913 127.73672) rotate(-180) scale(.46996)" xlink:href="#_新增符號" opacity="0.4" />
		<use width="10" height="10" transform="translate(537.44779 250.51476) rotate(-180) scale(.11819)" xlink:href="#_新增符號" opacity="0.4" />
		<use width="10" height="10" transform="translate(1726.25422 773.20464) rotate(-180) scale(.16734)" xlink:href="#_新增符號" opacity="0.4" />
		<use width="10" height="10" transform="translate(1114.60761 610.30524) rotate(-180) scale(.15894)" xlink:href="#_新增符號" opacity="0.4" />
		<use width="10" height="10" transform="translate(1627.14885 649.40154) rotate(-180) scale(.14522)" xlink:href="#_新增符號" opacity="0.4" />
		<use width="10" height="10" transform="translate(300.94347 735.61181) rotate(-180) scale(.16008)" xlink:href="#_新增符號" opacity="0.4" />
		<use width="10" height="10" transform="translate(1030.96514 835.43362) rotate(-180) scale(.20545)" xlink:href="#_新增符號" opacity="0.4" />
		<use width="10" height="10" transform="translate(361.20319 783.26831) rotate(-180) scale(.22669)" xlink:href="#_新增符號" opacity="0.4" />
		<use width="10" height="10" transform="translate(482.18143 546.13745) rotate(-180) scale(.22794)" xlink:href="#_新增符號" opacity="0.4" />
		<use width="10" height="10" transform="translate(448.96157 1263.64348) rotate(-180) scale(.19756)" xlink:href="#_新增符號" opacity="0.4" />
		<use width="10" height="10" transform="translate(679.39555 1015.39772) rotate(-180) scale(.16865)" xlink:href="#_新增符號" opacity="0.4" />
		<use width="10" height="10" transform="translate(695.89261 1052.55271) rotate(-180) scale(.18226)" xlink:href="#_新增符號" opacity="0.4" />
		<use width="10" height="10" transform="translate(1958.16165 964.88066) rotate(-180) scale(.15666)" xlink:href="#_新增符號" opacity="0.4" />
		<use width="10" height="10" transform="translate(726.85556 796.85232) rotate(-180) scale(.17473)" xlink:href="#_新增符號" opacity="0.4" />
		<use width="10" height="10" transform="translate(1057.99318 735.26141) rotate(-180) scale(.18815)" xlink:href="#_新增符號" opacity="0.4" />
		<use width="10" height="10" transform="translate(1594.30957 624.69376) rotate(-180) scale(.17664)" xlink:href="#_新增符號" opacity="0.4" />
		<use width="10" height="10" transform="translate(2122.9142 303.0978) rotate(-180) scale(.13234)" xlink:href="#_新增符號" opacity="0.4" />
		<use width="10" height="10" transform="translate(1911.91184 451.55723) rotate(-180) scale(.24339)" xlink:href="#_新增符號" opacity="0.4" />
		<use width="10" height="10" transform="translate(2023.95218 467.23811) rotate(-180) scale(.14288)" xlink:href="#_新增符號" opacity="0.4" />
		<use width="10" height="10" transform="translate(1182.38088 576.92292) rotate(-180) scale(.15679)" xlink:href="#_新增符號" opacity="0.4" />
		<use width="10" height="10" transform="translate(814.67066 577.12493) rotate(-180) scale(.15215)" xlink:href="#_新增符號" opacity="0.4" />
		<use width="10" height="10" transform="translate(42.33807 762.65857) rotate(-180) scale(.03381)" xlink:href="#_新增符號" opacity="0.4" />
		<use width="10" height="10" transform="translate(674.96672 285.83455) rotate(-180) scale(.11087)" xlink:href="#_新增符號" opacity="0.4" />
		<use width="10" height="10" transform="translate(267.33708 1221.19547) rotate(-180) scale(.06743)" xlink:href="#_新增符號" opacity="0.4" />
		<use width="10" height="10" transform="translate(292.20222 765.05124) rotate(-180) scale(.14269)" xlink:href="#_新增符號" opacity="0.4" />
		<use width="10" height="10" transform="translate(305.68058 1324.81462) rotate(-180) scale(.14533)" xlink:href="#_新增符號" opacity="0.4" />
		<use width="10" height="10" transform="translate(309.09914 1318.51075) rotate(-180) scale(.1365)" xlink:href="#_新增符號" opacity="0.4" />
		<use width="10" height="10" transform="translate(271.01049 1362.00614) rotate(-180) scale(.22487)" xlink:href="#_新增符號" opacity="0.4" />
		<use width="10" height="10" transform="translate(588.73102 1167.77446) rotate(-180) scale(.29119)" xlink:href="#_新增符號" opacity="0.4" />
		<use width="10" height="10" transform="translate(700.80726 1181.63838) rotate(-180) scale(.29115)" xlink:href="#_新增符號" opacity="0.4" />
		<use width="10" height="10" transform="translate(1073.65776 1224.83702) rotate(-180) scale(.20714)" xlink:href="#_新增符號" opacity="0.4" />
		<use width="10" height="10" transform="translate(1093.02581 1238.06619) rotate(-180) scale(.2169)" xlink:href="#_新增符號" opacity="0.4" />
		<use width="10" height="10" transform="translate(868.14032 1209.36907) rotate(-180) scale(.2471)" xlink:href="#_新增符號" opacity="0.4" />
		<use width="10" height="10" transform="translate(164.19217 1263.26282) rotate(-180) scale(.08567)" xlink:href="#_新增符號" opacity="0.4" />
		<use width="10" height="10" transform="translate(133.3659 707.39575) rotate(-180) scale(.02963)" xlink:href="#_新增符號" opacity="0.4" />
		<use width="10" height="10" transform="translate(201.5842 1050.68676) rotate(-180) scale(.04092)" xlink:href="#_新增符號" opacity="0.4" />
		<use width="10" height="10" transform="translate(700.40427 251.96307) rotate(-180) scale(.09778)" xlink:href="#_新增符號" opacity="0.4" />
		<use width="10" height="10" transform="translate(1480.53994 484.58319) rotate(-180) scale(.18438)" xlink:href="#_新增符號" opacity="0.4" />
		<use width="10" height="10" transform="translate(1726.93979 313.79015) rotate(-180) scale(.31133)" xlink:href="#_新增符號" opacity="0.4" />
		<use width="10" height="10" transform="translate(1509.39322 230.68864) rotate(-180) scale(.41529)" xlink:href="#_新增符號" opacity="0.4" />
		<use width="10" height="10" transform="translate(402.94185 3.39302) rotate(-180) scale(.1393)" xlink:href="#_新增符號" opacity="0.4" />
		<use width="10" height="10" transform="translate(859.80892 13.69817) rotate(-180) scale(.21677)" xlink:href="#_新增符號" opacity="0.4" />
		<use width="10" height="10" transform="translate(974.96556 52.24299) rotate(-180) scale(.24136)" xlink:href="#_新增符號" opacity="0.4" />
		<use width="10" height="10" transform="translate(1509.8921 315.88571) rotate(-180) scale(.25411)" xlink:href="#_新增符號" opacity="0.4" />
		<use width="10" height="10" transform="translate(1705.48966 404.75282) rotate(-180) scale(.22378)" xlink:href="#_新增符號" opacity="0.4" />
		<use width="10" height="10" transform="translate(1146.09357 319.05308) rotate(-180) scale(.19681)" xlink:href="#_新增符號" opacity="0.4" />
		<use width="10" height="10" transform="translate(1093.22176 215.55834) rotate(-180) scale(.20581)" xlink:href="#_新增符號" opacity="0.4" />
		<use width="10" height="10" transform="translate(891.92745 939.37339) rotate(-180) scale(.1764)" xlink:href="#_新增符號" opacity="0.4" />
		<use width="10" height="10" transform="translate(973.90642 914.91187) rotate(-180) scale(.16866)" xlink:href="#_新增符號" opacity="0.4" />
		<use width="10" height="10" transform="translate(904.8682 769.05101) rotate(-180) scale(.18452)" xlink:href="#_新增符號" opacity="0.4" />
		<use width="10" height="10" transform="translate(751.45418 381.45285) rotate(-180) scale(.23323)" xlink:href="#_新增符號" opacity="0.4" />
		<use width="10" height="10" transform="translate(765.55928 808.57693) rotate(-180) scale(.17252)" xlink:href="#_新增符號" opacity="0.4" />
		<use width="10" height="10" transform="translate(972.42861 787.58762) rotate(-180) scale(.18435)" xlink:href="#_新增符號" opacity="0.4" />
		<use width="10" height="10" transform="translate(415.45383 546.3909) rotate(-180) scale(.2198)" xlink:href="#_新增符號" opacity="0.4" />
		<use width="10" height="10" transform="translate(625.61667 909.99692) rotate(-180) scale(.17946)" xlink:href="#_新增符號" opacity="0.4" />
		<use width="10" height="10" transform="translate(639.72705 903.81814) rotate(-180) scale(.18085)" xlink:href="#_新增符號" opacity="0.7" />
		<use width="10" height="10" transform="translate(731.68585 990.80527) rotate(-180) scale(.17179)" xlink:href="#_新增符號" opacity="0.4" />
		<use width="10" height="10" transform="translate(694.32817 901.84576) rotate(-180) scale(.19431)" xlink:href="#_新增符號" opacity="0.4" />
		<use width="10" height="10" transform="translate(431.27623 575.05208) rotate(-180) scale(.2564)" xlink:href="#_新增符號" opacity="0.4" />
		<use width="10" height="10" transform="translate(1197.32228 981.87572) rotate(-180) scale(.19987)" xlink:href="#_新增符號" opacity="0.4" />
		<use width="10" height="10" transform="translate(1526.36006 1080.59147) rotate(-180) scale(.21597)" xlink:href="#_新增符號" opacity="0.4" />
		<use width="10" height="10" transform="translate(1893.748 1251.92802) rotate(-180) scale(.22909)" xlink:href="#_新增符號" opacity="0.4" />
		<use width="10" height="10" transform="translate(1309.05909 1094.26815) rotate(-180) scale(.27398)" xlink:href="#_新增符號" opacity="0.4" />
		<use width="10" height="10" transform="translate(1260.45888 1111.37428) rotate(-180) scale(.26441)" xlink:href="#_新增符號" opacity="0.4" />
		<use width="10" height="10" transform="translate(1854.97462 1230.80006) rotate(-180) scale(.21705)" xlink:href="#_新增符號" opacity="0.4" />
		<use width="10" height="10" transform="translate(693.6172 1093.3257) rotate(-180) scale(.21785)" xlink:href="#_新增符號" opacity="0.4" />
		<use width="10" height="10" transform="translate(483.42254 543.30651) rotate(-180) scale(.22823)" xlink:href="#_新增符號" opacity="0.4" />
		<use width="10" height="10" transform="translate(1045.44168 701.56474) rotate(-180) scale(.16897)" xlink:href="#_新增符號" opacity="0.4" />
		<use width="10" height="10" transform="translate(926.5784 283.42787) rotate(-180) scale(.11647)" xlink:href="#_新增符號" opacity="0.4" />
		<use width="10" height="10" transform="translate(987.22273 405.8965) rotate(-180) scale(.13285)" xlink:href="#_新增符號" opacity="0.4" />
		<use width="10" height="10" transform="translate(1927.31007 642.64847) rotate(-180) scale(.19334)" xlink:href="#_新增符號" opacity="0.4" />
		<use width="10" height="10" transform="translate(1951.94366 435.01972) rotate(-180) scale(.20793)" xlink:href="#_新增符號" opacity="0.4" />
		<use width="10" height="10" transform="translate(1792.04817 178.82697) rotate(-180) scale(.11855)" xlink:href="#_新增符號" opacity="0.4" />
		<use width="10" height="10" transform="translate(1786.04904 172.72539) rotate(-180) scale(.11793)" xlink:href="#_新增符號" opacity="0.4" />
		<use width="10" height="10" transform="translate(1814.09008 136.46267) rotate(-180) scale(.12243)" xlink:href="#_新增符號" opacity="0.4" />
		<use width="10" height="10" transform="translate(1928.92644 188.06335) rotate(-180) scale(.13172)" xlink:href="#_新增符號" opacity="0.4" />
		<use width="10" height="10" transform="translate(2096.98484 577.45241) rotate(-180) scale(.15131)" xlink:href="#_新增符號" opacity="0.4" />
		<use width="10" height="10" transform="translate(2097.31676 305.46257) rotate(-180) scale(.13909)" xlink:href="#_新增符號" opacity="0.4" />
		<use width="10" height="10" transform="translate(1842.93799 207.99664) rotate(-180) scale(.12097)" xlink:href="#_新增符號" opacity="0.4" />
		<use width="10" height="10" transform="translate(2081.44568 167.47601) rotate(-180) scale(.10784)" xlink:href="#_新增符號" opacity="0.4" />
		<use width="10" height="10" transform="translate(2230.26149 58.16587) rotate(-180) scale(.12345)" xlink:href="#_新增符號" opacity="0.4" />
		<use width="10" height="10" transform="translate(2281.33973 97.99422) rotate(-180) scale(.14251)" xlink:href="#_新增符號" opacity="0.4" />
		<use width="10" height="10" transform="translate(1794.14626 49.67771) rotate(-180) scale(.12708)" xlink:href="#_新增符號" opacity="0.4" />
		<use width="10" height="10" transform="translate(1705.08519 124.11665) rotate(-180) scale(.11189)" xlink:href="#_新增符號" opacity="0.4" />
		<use width="10" height="10" transform="translate(1727.47067 75.06277) rotate(-180) scale(.10542)" xlink:href="#_新增符號" opacity="0.4" />
		<use width="10" height="10" transform="translate(1418.88066 101.1344) rotate(-180) scale(.30464)" xlink:href="#_新增符號" opacity="0.4" />
		<use width="10" height="10" transform="translate(864.04257 124.98509) rotate(-180) scale(.20094)" xlink:href="#_新增符號" opacity="0.4" />
		<use width="10" height="10" transform="translate(1011.38972 220.25937) rotate(-180) scale(.1907)" xlink:href="#_新增符號" opacity="0.4" />
		<use width="10" height="10" transform="translate(410.32577 344.3328) rotate(-180) scale(.07488)" xlink:href="#_新增符號" opacity="0.4" />
		<use width="10" height="10" transform="translate(414.26649 312.42392) rotate(-180) scale(.10153)" xlink:href="#_新增符號" opacity="0.4" />
		<use width="10" height="10" transform="translate(332.75428 259.51915) rotate(-180) scale(.19832)" xlink:href="#_新增符號" opacity="0.4" />
		<use width="10" height="10" transform="translate(131.23563 1062.55024) rotate(-180) scale(.03407)" xlink:href="#_新增符號" opacity="0.4" />
		<use width="10" height="10" transform="translate(285.54182 846.39886) rotate(-180) scale(.1196)" xlink:href="#_新增符號" opacity="0.4" />
		<use width="10" height="10" transform="translate(306.73843 913.88533) rotate(-180) scale(.13225)" xlink:href="#_新增符號" opacity="0.4" />
		<use width="10" height="10" transform="translate(767.10001 696.7952) rotate(-180) scale(.21466)" xlink:href="#_新增符號" opacity="0.4" />
		<use width="10" height="10" transform="translate(1292.66633 569.6965) rotate(-180) scale(.17221)" xlink:href="#_新增符號" opacity="0.4" />
		<use width="10" height="10" transform="translate(1833.03881 559.04423) rotate(-180) scale(.20173)" xlink:href="#_新增符號" opacity="0.4" />
		<use width="10" height="10" transform="translate(1859.39488 442.72258) rotate(-180) scale(.22061)" xlink:href="#_新增符號" opacity="0.4" />
		<use width="10" height="10" transform="translate(1871.54151 451.58044) rotate(-180) scale(.22021)" xlink:href="#_新增符號" opacity="0.4" />
		<use width="10" height="10" transform="translate(1888.28835 466.71261) rotate(-180) scale(.22151)" xlink:href="#_新增符號" opacity="0.4" />
		<use width="10" height="10" transform="translate(1719.75069 583.49167) rotate(-180) scale(.14324)" xlink:href="#_新增符號" opacity="0.4" />
		<use width="10" height="10" transform="translate(1643.04437 592.42964) rotate(-180) scale(.13713)" xlink:href="#_新增符號" opacity="0.4" />
		<use width="10" height="10" transform="translate(1467.0475 562.00349) rotate(-180) scale(.14137)" xlink:href="#_新增符號" opacity="0.4" />
		<use width="10" height="10" transform="translate(1261.57128 543.11855) rotate(-180) scale(.14952)" xlink:href="#_新增符號" opacity="0.4" />
		<use width="10" height="10" transform="translate(1688.84872 537.01655) rotate(-180) scale(.16652)" xlink:href="#_新增符號" opacity="0.4" />
		<use width="10" height="10" transform="translate(1508.59668 390.10257) rotate(-180) scale(.20008)" xlink:href="#_新增符號" opacity="0.4" />
		<use width="10" height="10" transform="translate(1345.61381 267.29216) rotate(-180) scale(.19363)" xlink:href="#_新增符號" opacity="0.4" />
		<use width="10" height="10" transform="translate(813.99406 65.12617) rotate(-180) scale(.16264)" xlink:href="#_新增符號" opacity="0.4" />
		<use width="10" height="10" transform="translate(533.35013 66.25456) rotate(-180) scale(.16379)" xlink:href="#_新增符號" opacity="0.4" />
		<use width="10" height="10" transform="translate(458.59928 60.81191) rotate(-180) scale(.16224)" xlink:href="#_新增符號" opacity="0.4" />
		<use width="10" height="10" transform="translate(409.38574 57.19227) rotate(-180) scale(.16805)" xlink:href="#_新增符號" opacity="0.4" />
		<use width="10" height="10" transform="translate(377.46318 477.06268) rotate(-180) scale(.10149)" xlink:href="#_新增符號" opacity="0.4" />
		<use width="10" height="10" transform="translate(540.67631 379.73232) rotate(-180) scale(.16677)" xlink:href="#_新增符號" opacity="0.4" />
		<use width="10" height="10" transform="translate(764.72529 339.28991) rotate(-180) scale(.21502)" xlink:href="#_新增符號" opacity="0.4" />
		<use width="10" height="10" transform="translate(786.26737 397.0184) rotate(-180) scale(.21837)" xlink:href="#_新增符號" opacity="0.4" />
		<use width="10" height="10" transform="translate(675.85228 588.70326) rotate(-180) scale(.19094)" xlink:href="#_新增符號" opacity="0.4" />
		<use width="10" height="10" transform="translate(523.85623 593.4887) rotate(-180) scale(.18588)" xlink:href="#_新增符號" opacity="0.4" />
		<use width="10" height="10" transform="translate(515.90149 868.36444) rotate(-180) scale(.17356)" xlink:href="#_新增符號" opacity="0.4" />
		<use width="10" height="10" transform="translate(2260.65819 469.25452) rotate(-180) scale(.22813)" xlink:href="#_新增符號" opacity="0.4" />
		<use width="10" height="10" transform="translate(2322.47608 337.0694) rotate(-180) scale(.18304)" xlink:href="#_新增符號" opacity="0.4" />
		<use width="10" height="10" transform="translate(2190.64001 126.20766) rotate(-180) scale(.09889)" xlink:href="#_新增符號" opacity="0.4" />
		<use width="10" height="10" transform="translate(2115.33618 65.20108) rotate(-180) scale(.10602)" xlink:href="#_新增符號" opacity="0.4" />
		<use width="10" height="10" transform="translate(2038.90617 21.02029) rotate(-180) scale(.11986)" xlink:href="#_新增符號" opacity="0.4" />
		<use width="10" height="10" transform="translate(2031.62804 8.76306) rotate(-180) scale(.12234)" xlink:href="#_新增符號" opacity="0.4" />
		<use width="10" height="10" transform="translate(2149.55687 155.90137) rotate(-180) scale(.09776)" xlink:href="#_新增符號" opacity="0.4" />
		<use width="10" height="10" transform="translate(2008.37121 1177.749) rotate(-180) scale(.15646)" xlink:href="#_新增符號" opacity="0.4" />
		<use width="10" height="10" transform="translate(1924.99998 1170.59786) rotate(-180) scale(.14996)" xlink:href="#_新增符號" opacity="0.4" />
		<use width="10" height="10" transform="translate(1683.6492 1083.9638) rotate(-180) scale(.1519)" xlink:href="#_新增符號" opacity="0.4" />
		<use width="10" height="10" transform="translate(1705.67202 1038.03629) rotate(-180) scale(.13387)" xlink:href="#_新增符號" opacity="0.4" />
		<use width="10" height="10" transform="translate(1187.11467 739.44382) rotate(-180) scale(.15274)" xlink:href="#_新增符號" opacity="0.4" />
		<use width="10" height="10" transform="translate(1129.87404 780.06984) rotate(-180) scale(.17229)" xlink:href="#_新增符號" opacity="0.4" />
		<use width="10" height="10" transform="translate(1072.36689 876.43776) rotate(-180) scale(.18075)" xlink:href="#_新增符號" opacity="0.4" />
		<use width="10" height="10" transform="translate(914.43374 1012.39294) rotate(-180) scale(.16933)" xlink:href="#_新增符號" opacity="0.4" />
		<use width="10" height="10" transform="translate(1022.29409 1035.54706) rotate(-180) scale(.17262)" xlink:href="#_新增符號" opacity="0.4" />
		<use width="10" height="10" transform="translate(1018.44844 1075.15629) rotate(-180) scale(.18444)" xlink:href="#_新增符號" opacity="0.4" />
		<use width="10" height="10" transform="translate(971.81518 1081.67401) rotate(-180) scale(.18098)" xlink:href="#_新增符號" opacity="0.4" />
		<use width="10" height="10" transform="translate(1034.70178 790.56348) rotate(-180) scale(.19896)" xlink:href="#_新增符號" opacity="0.4" />
		<use width="10" height="10" transform="translate(1770.33345 865.56064) rotate(-180) scale(.15844)" xlink:href="#_新增符號" opacity="0.4" />
		<use width="10" height="10" transform="translate(1965.05305 759.48772) rotate(-180) scale(.15125)" xlink:href="#_新增符號" opacity="0.4" />
		<use width="10" height="10" transform="translate(2058.39546 441.65165) rotate(-180) scale(.146)" xlink:href="#_新增符號" opacity="0.4" />
		<use width="10" height="10" transform="translate(2014.72831 250.55225) rotate(-180) scale(.13306)" xlink:href="#_新增符號" opacity="0.4" />
		<use width="10" height="10" transform="translate(2001.20778 228.81871) rotate(-180) scale(.13326)" xlink:href="#_新增符號" opacity="0.4" />
		<use width="10" height="10" transform="translate(494.27463 1192.38892) rotate(-180) scale(.24673)" xlink:href="#_新增符號" opacity="0.4" />
		<use width="10" height="10" transform="translate(239.58715 991.9311) rotate(-180) scale(.05701)" xlink:href="#_新增符號" opacity="0.4" />
		<use width="10" height="10" transform="translate(211.95092 681.78258) rotate(-180) scale(.05105)" xlink:href="#_新增符號" opacity="0.4" />
		<use width="10" height="10" transform="translate(236.02498 561.77366) rotate(-180) scale(.0416)" xlink:href="#_新增符號" opacity="0.4" />
		<use width="10" height="10" transform="translate(202.84787 558.41585) rotate(-180) scale(.03609)" xlink:href="#_新增符號" opacity="0.4" />
		<use width="10" height="10" transform="translate(69.92255 557.62846) rotate(-180) scale(.05215)" xlink:href="#_新增符號" opacity="0.4" />
		<use width="10" height="10" transform="translate(112.39367 417.86567) rotate(-180) scale(.11603)" xlink:href="#_新增符號" opacity="0.4" />
	</g>
	<g class="cls-4">
		<use width="10" height="10" transform="translate(1657.87663 572.88531) rotate(-180) scale(.66125)" xlink:href="#_新增符號" opacity="0.4" />
		<use width="10" height="10" transform="translate(2211.9291 1244.19043) rotate(-180) scale(.13422)" xlink:href="#_新增符號" opacity="0.4" />
		<use width="10" height="10" transform="translate(2174.59818 1222.82517) rotate(-180) scale(.12507)" xlink:href="#_新增符號" opacity="0.4" />
		<use width="10" height="10" transform="translate(1424.9176 1130.42359) rotate(-180) scale(.22554)" xlink:href="#_新增符號" opacity="1" />
		<use width="10" height="10" transform="translate(1918.82565 624.96347) rotate(-180) scale(.49187)" xlink:href="#_新增符號" opacity="0.4" />
		<use width="10" height="10" transform="translate(1916.96405 788.94975) rotate(-180) scale(.54985)" xlink:href="#_新增符號" opacity="0.4" />
		<use width="10" height="10" transform="translate(2167.48241 738.60303) rotate(-180) scale(.54988)" xlink:href="#_新增符號" opacity="0.4" />
		<use width="10" height="10" transform="translate(1696.72913 1085.18462) rotate(-180) scale(.29187)" xlink:href="#_新增符號" opacity="0.4" />
		<use width="10" height="10" transform="translate(2020.53556 899.60703) rotate(-180) scale(.53223)" xlink:href="#_新增符號" opacity="0.4" />
		<use width="10" height="10" transform="translate(1874.78213 1061.11484) rotate(-180) scale(.2729)" xlink:href="#_新增符號" opacity="0.4" />
		<use width="10" height="10" transform="translate(2166.03315 980.67967) rotate(-180) scale(.42528)" xlink:href="#_新增符號" opacity="0.4" />
		<use width="10" height="10" transform="translate(2145.35171 895.64746) rotate(-180) scale(.54033)" xlink:href="#_新增符號" opacity="0.4" />
		<use width="10" height="10" transform="translate(2318.18428 826.17364) rotate(-180) scale(.56529)" xlink:href="#_新增符號" opacity="0.4" />
		<use width="10" height="10" transform="translate(1841.73228 135.19901) rotate(-180) scale(.34127)" xlink:href="#_新增符號" opacity="0.4" />
		<use width="10" height="10" transform="translate(1213.65368 109.19339) rotate(-180) scale(.28445)" xlink:href="#_新增符號" opacity="0.4" />
		<use width="10" height="10" transform="translate(1625.57103 113.08899) rotate(-180) scale(.26342)" xlink:href="#_新增符號" opacity="0.7" />
		<use width="10" height="10" transform="translate(1250.75949 614.05544) rotate(-180) scale(.53281)" xlink:href="#_新增符號" opacity="0.4" />
		<use width="10" height="10" transform="translate(2280.00057 327.10452) rotate(-180) scale(.34855)" xlink:href="#_新增符號" opacity="0.4" />
		<use width="10" height="10" transform="translate(1936.60033 535.14272) rotate(-180) scale(.4987)" xlink:href="#_新增符號" opacity="0.4" />
		<use width="10" height="10" transform="translate(2225.4155 201.58537) rotate(-180) scale(.26451)" xlink:href="#_新增符號" opacity="0.4" />
		<use width="10" height="10" transform="translate(1178.75251 397.70258) rotate(-180) scale(.52983)" xlink:href="#_新增符號" opacity="0.4" />
		<use width="10" height="10" transform="translate(2103.16363 44.39159) rotate(-180) scale(.22909)" xlink:href="#_新增符號" opacity="0.4" />
		<use width="10" height="10" transform="translate(1419.72879 569.30069) rotate(-180) scale(.63266)" xlink:href="#_新增符號" opacity="0.4" />
		<use width="10" height="10" transform="translate(1997.71675 420.32569) rotate(-180) scale(.41864)" xlink:href="#_新增符號" opacity="0.4" />
		<use width="10" height="10" transform="translate(399.24833 300.552) rotate(-180) scale(.44344)" xlink:href="#_新增符號" opacity="0.4" />
		<use width="10" height="10" transform="translate(29.20781 270.17361) rotate(-180) scale(.50572)" xlink:href="#_新增符號" opacity="0.4" />
		<use width="10" height="10" transform="translate(99.92326 153.97907) rotate(-180) scale(.41668)" xlink:href="#_新增符號" opacity="0.4" />
		<use width="10" height="10" transform="translate(228.56769 277.52948) rotate(-180) scale(.38339)" xlink:href="#_新增符號" opacity="0.4" />
		<use width="10" height="10" transform="translate(927.22082 112.82064) rotate(-180) scale(.73538)" xlink:href="#_新增符號" opacity="0.4" />
		<use width="10" height="10" transform="translate(217.39896 515.9962) rotate(-180) scale(.39041)" xlink:href="#_新增符號" opacity="0.4" />
		<use width="10" height="10" transform="translate(1339.26983 448.16796) rotate(-180) scale(.59013)" xlink:href="#_新增符號" opacity="0.4" />
		<use width="10" height="10" transform="translate(764.57983 589.37036) rotate(-180) scale(.50069)" xlink:href="#_新增符號" opacity="0.4" />
		<use width="10" height="10" transform="translate(1179.61093 562.68912) rotate(-180) scale(.47629)" xlink:href="#_新增符號" opacity="0.4" />
		<use width="10" height="10" transform="translate(539.42621 980.36702) rotate(-180) scale(.3636)" xlink:href="#_新增符號" opacity="0.4" />
		<use width="10" height="10" transform="translate(1640.32136 746.15898) rotate(-180) scale(.64378)" xlink:href="#_新增符號" opacity="0.4" />
		<use width="10" height="10" transform="translate(712.58142 1030.29228) rotate(-180) scale(.45996)" xlink:href="#_新增符號" opacity="0.4" />
		<use width="10" height="10" transform="translate(930.62461 986.49853) rotate(-180) scale(.59236)" xlink:href="#_新增符號" opacity="0.4" />
		<use width="10" height="10" transform="translate(389.76563 1210.79703) rotate(-180) scale(.29136)" xlink:href="#_新增符號" opacity="0.4" />
		<use width="10" height="10" transform="translate(1175.17619 1117.60293) rotate(-180) scale(.30581)" xlink:href="#_新增符號" opacity="0.4" />
		<use width="10" height="10" transform="translate(1113.62234 1144.36455) rotate(-180) scale(.31517)" xlink:href="#_新增符號" opacity="0.4" />
		<use width="10" height="10" transform="translate(1995.96916 703.0738) rotate(-180) scale(.48959)" xlink:href="#_新增符號" opacity="0.4" />
		<use width="10" height="10" transform="translate(1214.65444 877.84519) rotate(-180) scale(.59791)" xlink:href="#_新增符號" opacity="0.4" />
		<use width="10" height="10" transform="translate(1474.82355 762.04181) rotate(-180) scale(.62616)" xlink:href="#_新增符號" opacity="0.4" />
		<use width="10" height="10" transform="translate(1029.73194 539.93986) rotate(-180) scale(.47182)" xlink:href="#_新增符號" opacity="0.4" />
		<use width="10" height="10" transform="translate(1858.09509 387.06455) rotate(-180) scale(.56223)" xlink:href="#_新增符號" opacity="0.4" />
		<use width="10" height="10" transform="translate(970.0779 361.26344) rotate(-180) scale(.58313)" xlink:href="#_新增符號" opacity="0.4" />
		<use width="10" height="10" transform="translate(1433.87247 354.53551) rotate(-180) scale(.50736)" xlink:href="#_新增符號" opacity="0.4" />
		<use width="10" height="10" transform="translate(763.55884 575.8396) rotate(-180) scale(.49947)" xlink:href="#_新增符號" opacity="0.4" />
		<use width="10" height="10" transform="translate(625.24347 667.3748) rotate(-180) scale(.51463)" xlink:href="#_新增符號" opacity="0.4" />
		<use width="10" height="10" transform="translate(17.01409 790.36431) rotate(-180) scale(.38008)" xlink:href="#_新增符號" opacity="0.4" />
		<use width="10" height="10" transform="translate(422.76676 708.23031) rotate(-180) scale(.46143)" xlink:href="#_新增符號" opacity="0.4" />
		<use width="10" height="10" transform="translate(194.32075 1080.59056) rotate(-180) scale(.30901)" xlink:href="#_新增符號" opacity="0.4" />
		<use width="10" height="10" transform="translate(505.74845 979.2738) rotate(-180) scale(.33762)" xlink:href="#_新增符號" opacity="0.4" />
		<use width="10" height="10" transform="translate(160.50149 1209.73511) rotate(-180) scale(.37361)" xlink:href="#_新增符號" opacity="0.4" />
		<use width="10" height="10" transform="translate(168.16652 1200.40112) rotate(-180) scale(.36017)" xlink:href="#_新增符號" opacity="0.4" />
		<use width="10" height="10" transform="translate(126.44548 1268.66658) rotate(-180) scale(.46204)" xlink:href="#_新增符號" opacity="0.4" />
		<use width="10" height="10" transform="translate(690.8847 1216.47285) rotate(-180) scale(.38325)" xlink:href="#_新增符號" opacity="0.4" />
		<use width="10" height="10" transform="translate(855.79756 1237.81553) rotate(-180) scale(.38513)" xlink:href="#_新增符號" opacity="0.4" />
		<use width="10" height="10" transform="translate(1281.38906 1236.72698) rotate(-180) scale(.24869)" xlink:href="#_新增符號" opacity="0.4" />
		<use width="10" height="10" transform="translate(1275.6781 1251.05487) rotate(-180) scale(.25212)" xlink:href="#_新增符號" opacity="0.4" />
		<use width="10" height="10" transform="translate(1057.80434 1243.07481) rotate(-180) scale(.32149)" xlink:href="#_新增符號" opacity="0.4" />
		<use width="10" height="10" transform="translate(26.12244 1113.86161) rotate(-180) scale(.48212)" xlink:href="#_新增符號" opacity="0.4" />
		<use width="10" height="10" transform="translate(146.07399 820.30841) rotate(-180) scale(.31784)" xlink:href="#_新增符號" opacity="0.4" />
		<use width="10" height="10" transform="translate(188.79612 978.65591) rotate(-180) scale(.32367)" xlink:href="#_新增符號" opacity="0.4" />
		<use width="10" height="10" transform="translate(343.70549 628.01086) rotate(-180) scale(.43465)" xlink:href="#_新增符號" opacity="0.4" />
		<use width="10" height="10" transform="translate(473.87618 362.63101) rotate(-180) scale(.5429)" xlink:href="#_新增符號" opacity="0.4" />
		<use width="10" height="10" transform="translate(1027.877 241.80538) rotate(-180) scale(.60838)" xlink:href="#_新增符號" opacity="0.4" />
		<use width="10" height="10" transform="translate(877.48565 176.2321) rotate(-180) scale(.76424)" xlink:href="#_新增符號" opacity="0.4" />
		<use width="10" height="10" transform="translate(298.6931 16.83464) rotate(-180) scale(.18218)" xlink:href="#_新增符號" opacity="0.4" />
		<use width="10" height="10" transform="translate(573.55282 68.33015) rotate(-180) scale(.31607)" xlink:href="#_新增符號" opacity="0.4" />
		<use width="10" height="10" transform="translate(624.64104 100.79133) rotate(-180) scale(.394)" xlink:href="#_新增符號" opacity="0.4" />
		<use width="10" height="10" transform="translate(692.12839 234.23158) rotate(-180) scale(.60191)" xlink:href="#_新增符號" opacity="0.4" />
		<use width="10" height="10" transform="translate(735.67165 309.57608) rotate(-180) scale(.62079)" xlink:href="#_新增符號" opacity="0.4" />
		<use width="10" height="10" transform="translate(383.59154 345.28249) rotate(-180) scale(.48287)" xlink:href="#_新增符號" opacity="0.4" />
		<use width="10" height="10" transform="translate(385.3686 305.65619) rotate(-180) scale(.45122)" xlink:href="#_新增符號" opacity="0.4" />
		<use width="10" height="10" transform="translate(1614.34599 907.04441) rotate(-180) scale(.43734)" xlink:href="#_新增符號" opacity="0.4" />
		<use width="10" height="10" transform="translate(1698.86933 834.9051) rotate(-180) scale(.52936)" xlink:href="#_新增符號" opacity="0.4" />
		<use width="10" height="10" transform="translate(1090.4817 718.78533) rotate(-180) scale(.58146)" xlink:href="#_新增符號" opacity="0.4" />
		<use width="10" height="10" transform="translate(782.09872 812.36472) rotate(-180) scale(.63391)" xlink:href="#_新增符號" opacity="0.4" />
		<use width="10" height="10" transform="translate(1227.00498 861.99074) rotate(-180) scale(.60539)" xlink:href="#_新增符號" opacity="0.4" />
		<use width="10" height="10" transform="translate(1307.00177 761.8493) rotate(-180) scale(.70131)" xlink:href="#_新增符號" opacity="0.4" />
		<use width="10" height="10" transform="translate(666.99903 944.80591) rotate(-180) scale(.49416)" xlink:href="#_新增符號" opacity="0.4" />
		<use width="10" height="10" transform="translate(1360.81362 1028.90181) rotate(-180) scale(.33054)" xlink:href="#_新增符號" opacity="0.4" />
		<use width="10" height="10" transform="translate(1414.3879 1010.17758) rotate(-180) scale(.32181)" xlink:href="#_新增符號" opacity="0.4" />
		<use width="10" height="10" transform="translate(1382.14496 1058.36941) rotate(-180) scale(.28869)" xlink:href="#_新增符號" opacity="0.4" />
		<use width="10" height="10" transform="translate(1486.35072 973.17511) rotate(-180) scale(.36495)" xlink:href="#_新增符號" opacity="0.4" />
		<use width="10" height="10" transform="translate(789.81804 979.90743) rotate(-180) scale(.59822)" xlink:href="#_新增符號" opacity="0.4" />
		<use width="10" height="10" transform="translate(1632.19107 1156.66786) rotate(-180) scale(.27749)" xlink:href="#_新增符號" opacity="0.4" />
		<use width="10" height="10" transform="translate(1764.86851 1217.65341) rotate(-180) scale(.2167)" xlink:href="#_新增符號" opacity="0.4" />
		<use width="10" height="10" transform="translate(1916.24736 1249.37623) rotate(-180) scale(.13856)" xlink:href="#_新增符號" opacity="0.4" />
		<use width="10" height="10" transform="translate(1563.13158 1260.80913) rotate(-180) scale(.28994)" xlink:href="#_新增符號" opacity="0.4" />
		<use width="10" height="10" transform="translate(1517.44992 1255.38144) rotate(-180) scale(.27487)" xlink:href="#_新增符號" opacity="0.4" />
		<use width="10" height="10" transform="translate(1905.40521 1233.06512) rotate(-180) scale(.14736)" xlink:href="#_新增符號" opacity="0.4" />
		<use width="10" height="10" transform="translate(1011.91108 1175.88094) rotate(-180) scale(.35009)" xlink:href="#_新增符號" opacity="0.4" />
		<use width="10" height="10" transform="translate(930.70866 984.47068) rotate(-180) scale(.59483)" xlink:href="#_新增符號" opacity="0.4" />
		<use width="10" height="10" transform="translate(1136.57645 683.87405) rotate(-180) scale(.54695)" xlink:href="#_新增符號" opacity="0.4" />
		<use width="10" height="10" transform="translate(398.38143 601.42687) rotate(-180) scale(.48313)" xlink:href="#_新增符號" opacity="0.4" />
		<use width="10" height="10" transform="translate(366.39296 521.54976) rotate(-180) scale(.47672)" xlink:href="#_新增符號" opacity="0.4" />
		<use width="10" height="10" transform="translate(1234.29098 385.86585) rotate(-180) scale(.51553)" xlink:href="#_新增符號" opacity="0.4" />
		<use width="10" height="10" transform="translate(1196.7493 335.01784) rotate(-180) scale(.48821)" xlink:href="#_新增符號" opacity="0.4" />
		<use width="10" height="10" transform="translate(1442.87456 168.95682) rotate(-180) scale(.24356)" xlink:href="#_新增符號" opacity="0.4" />
		<use width="10" height="10" transform="translate(1448.29629 163.49748) rotate(-180) scale(.23917)" xlink:href="#_新增符號" opacity="0.4" />
		<use width="10" height="10" transform="translate(1552.056 142.37535) rotate(-180) scale(.25325)" xlink:href="#_新增符號" opacity="0.4" />
		<use width="10" height="10" transform="translate(1600.47941 204.11369) rotate(-180) scale(.35658)" xlink:href="#_新增符號" opacity="0.4" />
		<use width="10" height="10" transform="translate(1782.28729 458.7976) rotate(-180) scale(.61787)" xlink:href="#_新增符號" opacity="0.4" />
		<use width="10" height="10" transform="translate(1802.96851 372.98724) rotate(-180) scale(.60482)" xlink:href="#_新增符號" opacity="0.4" />
		<use width="10" height="10" transform="translate(1445.76658 198.38794) rotate(-180) scale(.27529)" xlink:href="#_新增符號" opacity="0.4" />
		<use width="10" height="10" transform="translate(1853.335 220.28824) rotate(-180) scale(.38385)" xlink:href="#_新增符號" opacity="0.4" />
		<use width="10" height="10" transform="translate(2158.31351 103.12735) rotate(-180) scale(.22478)" xlink:href="#_新增符號" opacity="0.4" />
		<use width="10" height="10" transform="translate(2205.08946 148.80731) rotate(-180) scale(.24352)" xlink:href="#_新增符號" opacity="0.4" />
		<use width="10" height="10" transform="translate(1661.08057 65.17924) rotate(-180) scale(.24519)" xlink:href="#_新增符號" opacity="0.4" />
		<use width="10" height="10" transform="translate(1442.70134 115.43057) rotate(-180) scale(.20021)" xlink:href="#_新增符號" opacity="0.4" />
		<use width="10" height="10" transform="translate(1554.37113 80.82165) rotate(-180) scale(.18842)" xlink:href="#_新增符號" opacity="0.4" />
		<use width="10" height="10" transform="translate(1076.85723 82.00231) rotate(-180) scale(.46091)" xlink:href="#_新增符號" opacity="0.4" />
		<use width="10" height="10" transform="translate(370.98181 249.03802) rotate(-180) scale(.364)" xlink:href="#_新增符號" opacity="0.4" />
		<use width="10" height="10" transform="translate(328.07429 369.13982) rotate(-180) scale(.45188)" xlink:href="#_新增符號" opacity="0.4" />
		<use width="10" height="10" transform="translate(207.13721 599.72504) rotate(-180) scale(.3564)" xlink:href="#_新增符號" opacity="0.4" />
		<use width="10" height="10" transform="translate(178.80729 536.89633) rotate(-180) scale(.3604)" xlink:href="#_新增符號" opacity="0.4" />
		<use width="10" height="10" transform="translate(117.62401 395.86833) rotate(-180) scale(.41003)" xlink:href="#_新增符號" opacity="0.4" />
		<use width="10" height="10" transform="translate(73.53337 959.52977) rotate(-180) scale(.40443)" xlink:href="#_新增符號" opacity="0.4" />
		<use width="10" height="10" transform="translate(455.78605 989.11191) rotate(-180) scale(.2957)" xlink:href="#_新增符號" opacity="0.4" />
		<use width="10" height="10" transform="translate(479.82809 1015.87919) rotate(-180) scale(.29598)" xlink:href="#_新增符號" opacity="0.4" />
		<use width="10" height="10" transform="translate(952.49721 759.18517) rotate(-180) scale(.66543)" xlink:href="#_新增符號" opacity="0.4" />
		<use width="10" height="10" transform="translate(893.17427 580.05763) rotate(-180) scale(.48799)" xlink:href="#_新增符號" opacity="0.4" />
		<use width="10" height="10" transform="translate(885.45975 441.94738) rotate(-180) scale(.53562)" xlink:href="#_新增符號" opacity="0.4" />
		<use width="10" height="10" transform="translate(827.17241 367.70888) rotate(-180) scale(.60361)" xlink:href="#_新增符號" opacity="0.4" />
		<use width="10" height="10" transform="translate(835.24219 373.0903) rotate(-180) scale(.60124)" xlink:href="#_新增符號" opacity="0.4" />
		<use width="10" height="10" transform="translate(851.22337 381.06982) rotate(-180) scale(.5991)" xlink:href="#_新增符號" opacity="0.4" />
		<use width="10" height="10" transform="translate(677.86942 452.46704) rotate(-180) scale(.51377)" xlink:href="#_新增符號" opacity="0.4" />
		<use width="10" height="10" transform="translate(648.5025 465.71609) rotate(-180) scale(.4977)" xlink:href="#_新增符號" opacity="0.4" />
		<use width="10" height="10" transform="translate(579.4593 484.464) rotate(-180) scale(.51754)" xlink:href="#_新增符號" opacity="0.4" />
		<use width="10" height="10" transform="translate(531.73326 497.96517) rotate(-180) scale(.55179)" xlink:href="#_新增符號" opacity="0.4" />
		<use width="10" height="10" transform="translate(537.1916 407.52232) rotate(-180) scale(.56845)" xlink:href="#_新增符號" opacity="0.4" />
		<use width="10" height="10" transform="translate(579.53637 282.15049) rotate(-180) scale(.5271)" xlink:href="#_新增符號" opacity="0.4" />
		<use width="10" height="10" transform="translate(568.41079 228.3753) rotate(-180) scale(.436)" xlink:href="#_新增符號" opacity="0.4" />
		<use width="10" height="10" transform="translate(434.44921 152.75255) rotate(-180) scale(.25633)" xlink:href="#_新增符號" opacity="0.4" />
		<use width="10" height="10" transform="translate(311.92917 120.84955) rotate(-180) scale(.23547)" xlink:href="#_新增符號" opacity="0.4" />
		<use width="10" height="10" transform="translate(285.06937 99.32614) rotate(-180) scale(.22809)" xlink:href="#_新增符號" opacity="0.4" />
		<use width="10" height="10" transform="translate(260.66385 88.55052) rotate(-180) scale(.23332)" xlink:href="#_新增符號" opacity="0.4" />
		<use width="10" height="10" transform="translate(395.29324 819.23836) rotate(-180) scale(.39834)" xlink:href="#_新增符號" opacity="0.7" />
		<use width="10" height="10" transform="translate(563.21769 827.59707) rotate(-180) scale(.47619)" xlink:href="#_新增符號" opacity="0.4" />
		<use width="10" height="10" transform="translate(694.07072 790.85476) rotate(-180) scale(.58498)" xlink:href="#_新增符號" opacity="0.4" />
		<use width="10" height="10" transform="translate(734.04305 774.90873) rotate(-180) scale(.5952)" xlink:href="#_新增符號" opacity="0.4" />
		<use width="10" height="10" transform="translate(1082.72891 908.04257) rotate(-180) scale(.65712)" xlink:href="#_新增符號" opacity="0.4" />
		<use width="10" height="10" transform="translate(1100.56337 1005.84959) rotate(-180) scale(.49796)" xlink:href="#_新增符號" opacity="0.4" />
		<use width="10" height="10" transform="translate(1137.50657 1061.39867) rotate(-180) scale(.3824)" xlink:href="#_新增符號" opacity="0.4" />
		<use width="10" height="10" transform="translate(2181.42155 634.99159) rotate(-180) scale(.46502)" xlink:href="#_新增符號" opacity="0.4" />
		<use width="10" height="10" transform="translate(2191.38593 454.67831) rotate(-180) scale(.41471)" xlink:href="#_新增符號" opacity="0.4" />
		<use width="10" height="10" transform="translate(2062.93055 185.77049) rotate(-180) scale(.30605)" xlink:href="#_新增符號" opacity="1" />
		<use width="10" height="10" transform="translate(2009.77516 110.72673) rotate(-180) scale(.28496)" xlink:href="#_新增符號" opacity="0.4" />
		<use width="10" height="10" transform="translate(1953.86797 57.51195) rotate(-180) scale(.28148)" xlink:href="#_新增符號" opacity="0.4" />
		<use width="10" height="10" transform="translate(1953.84417 44.08842) rotate(-180) scale(.27717)" xlink:href="#_新增符號" opacity="0.4" />
		<use width="10" height="10" transform="translate(1972.90678 217.52127) rotate(-180) scale(.35583)" xlink:href="#_新增符號" opacity="0.4" />
		<use width="10" height="10" transform="translate(2046.72662 1116.15034) rotate(-180) scale(.17652)" xlink:href="#_新增符號" opacity="0.4" />
		<use width="10" height="10" transform="translate(2004.13949 1116.16409) rotate(-180) scale(.18006)" xlink:href="#_新增符號" opacity="0.4" />
		<use width="10" height="10" transform="translate(1908.51208 1116.3078) rotate(-180) scale(.20997)" xlink:href="#_新增符號" opacity="0.4" />
		<use width="10" height="10" transform="translate(1965.05207 1007.79602) rotate(-180) scale(.3454)" xlink:href="#_新增符號" opacity="0.4" />
		<use width="10" height="10" transform="translate(1883.62375 873.094) rotate(-180) scale(.55164)" xlink:href="#_新增符號" opacity="0.4" />
		<use width="10" height="10" transform="translate(1773.96259 707.06385) rotate(-180) scale(.57085)" xlink:href="#_新增符號" opacity="0.4" />
		<use width="10" height="10" transform="translate(1753.09581 738.06155) rotate(-180) scale(.5922)" xlink:href="#_新增符號" opacity="0.4" />
		<use width="10" height="10" transform="translate(1662.01175 965.36301) rotate(-180) scale(.38848)" xlink:href="#_新增符號" opacity="0.4" />
		<use width="10" height="10" transform="translate(1669.83289 1018.43285) rotate(-180) scale(.35407)" xlink:href="#_新增符號" opacity="0.4" />
		<use width="10" height="10" transform="translate(1573.73888 1068.70329) rotate(-180) scale(.28277)" xlink:href="#_新增符號" opacity="0.4" />
		<use width="10" height="10" transform="translate(1533.65389 1068.64954) rotate(-180) scale(.26596)" xlink:href="#_新增符號" opacity="0.4" />
		<use width="10" height="10" transform="translate(1596.47087 777.43979) rotate(-180) scale(.59611)" xlink:href="#_新增符號" opacity="0.4" />
		<use width="10" height="10" transform="translate(1623.24624 495.86091) rotate(-180) scale(.68003)" xlink:href="#_新增符號" opacity="0.4" />
		<use width="10" height="10" transform="translate(1556.97737 437.87998) rotate(-180) scale(.63524)" xlink:href="#_新增符號" opacity="0.4" />
		<use width="10" height="10" transform="translate(1543.13821 364.09144) rotate(-180) scale(.5643)" xlink:href="#_新增符號" opacity="0.7" />
		<use width="10" height="10" transform="translate(1616.98062 276.53328) rotate(-180) scale(.46288)" xlink:href="#_新增符號" opacity="0.4" />
		<use width="10" height="10" transform="translate(1632.89554 255.1383) rotate(-180) scale(.44815)" xlink:href="#_新增符號" opacity="0.4" />
		<use width="10" height="10" transform="translate(559.76625 1186.57113) rotate(-180) scale(.35282)" xlink:href="#_新增符號" opacity="1" />
		<use width="10" height="10" transform="translate(282.21545 983.55789) rotate(-180) scale(.28033)" xlink:href="#_新增符號" opacity="0.4" />
		<use width="10" height="10" transform="translate(283.01883 872.15769) rotate(-180) scale(.31635)" xlink:href="#_新增符號" opacity="0.4" />
		<use width="10" height="10" transform="translate(234.04276 790.75214) rotate(-180) scale(.32233)" xlink:href="#_新增符號" opacity="0.4" />
		<use width="10" height="10" transform="translate(176.85616 756.51497) rotate(-180) scale(.32286)" xlink:href="#_新增符號" opacity="1" />
		<use width="10" height="10" transform="translate(2.96848 650.32077) rotate(-180) scale(.2947)" xlink:href="#_新增符號" opacity="0.4" />
		<use width="10" height="10" transform="translate(5.02924 515.16913) rotate(-180) scale(.29702)" xlink:href="#_新增符號" opacity="0.4" />
	</g>
</svg>
